<mxfile host="app.diagrams.net" agent="Mozilla/5.0 (Windows NT 10.0; Win64; x64; rv:136.0) Gecko/20100101 Firefox/136.0" version="26.1.0">
  <diagram name="Pagina-1" id="rOT93RseFwFXbodsRm7L">
    <mxGraphModel dx="430" dy="640" grid="1" gridSize="10" guides="1" tooltips="1" connect="1" arrows="1" fold="1" page="1" pageScale="1" pageWidth="8268" pageHeight="1169" math="0" shadow="0">
      <root>
        <mxCell id="0" />
        <mxCell id="1" parent="0" />
        <mxCell id="ZrBkXSx4t8RdNaZ83y0n-43" value="" style="edgeStyle=orthogonalEdgeStyle;rounded=0;orthogonalLoop=1;jettySize=auto;html=1;" edge="1" parent="1" source="ZrBkXSx4t8RdNaZ83y0n-39" target="ZrBkXSx4t8RdNaZ83y0n-40">
          <mxGeometry relative="1" as="geometry" />
        </mxCell>
        <mxCell id="ZrBkXSx4t8RdNaZ83y0n-55" value="start = 1" style="edgeLabel;html=1;align=center;verticalAlign=middle;resizable=0;points=[];" vertex="1" connectable="0" parent="ZrBkXSx4t8RdNaZ83y0n-43">
          <mxGeometry relative="1" as="geometry">
            <mxPoint as="offset" />
          </mxGeometry>
        </mxCell>
        <mxCell id="ZrBkXSx4t8RdNaZ83y0n-39" value="S&lt;sub&gt;0&lt;/sub&gt;" style="ellipse;whiteSpace=wrap;html=1;aspect=fixed;" vertex="1" parent="1">
          <mxGeometry x="120" y="240" width="40" height="40" as="geometry" />
        </mxCell>
        <mxCell id="ZrBkXSx4t8RdNaZ83y0n-44" value="" style="edgeStyle=orthogonalEdgeStyle;rounded=0;orthogonalLoop=1;jettySize=auto;html=1;" edge="1" parent="1" source="ZrBkXSx4t8RdNaZ83y0n-40" target="ZrBkXSx4t8RdNaZ83y0n-41">
          <mxGeometry relative="1" as="geometry" />
        </mxCell>
        <mxCell id="ZrBkXSx4t8RdNaZ83y0n-40" value="S&lt;sub&gt;1&lt;/sub&gt;" style="ellipse;whiteSpace=wrap;html=1;aspect=fixed;" vertex="1" parent="1">
          <mxGeometry x="240" y="240" width="40" height="40" as="geometry" />
        </mxCell>
        <mxCell id="ZrBkXSx4t8RdNaZ83y0n-45" value="" style="edgeStyle=orthogonalEdgeStyle;rounded=0;orthogonalLoop=1;jettySize=auto;html=1;" edge="1" parent="1" source="ZrBkXSx4t8RdNaZ83y0n-41" target="ZrBkXSx4t8RdNaZ83y0n-42">
          <mxGeometry relative="1" as="geometry" />
        </mxCell>
        <mxCell id="ZrBkXSx4t8RdNaZ83y0n-41" value="S&lt;sub&gt;2&lt;/sub&gt;" style="ellipse;whiteSpace=wrap;html=1;aspect=fixed;" vertex="1" parent="1">
          <mxGeometry x="360" y="240" width="40" height="40" as="geometry" />
        </mxCell>
        <mxCell id="ZrBkXSx4t8RdNaZ83y0n-54" style="edgeStyle=orthogonalEdgeStyle;rounded=0;orthogonalLoop=1;jettySize=auto;html=1;exitX=0;exitY=0;exitDx=0;exitDy=0;entryX=1;entryY=0;entryDx=0;entryDy=0;curved=1;" edge="1" parent="1" source="ZrBkXSx4t8RdNaZ83y0n-42" target="ZrBkXSx4t8RdNaZ83y0n-40">
          <mxGeometry relative="1" as="geometry">
            <Array as="points">
              <mxPoint x="486" y="200" />
              <mxPoint x="274" y="200" />
            </Array>
          </mxGeometry>
        </mxCell>
        <mxCell id="ZrBkXSx4t8RdNaZ83y0n-60" value="Q_counter = 0" style="edgeLabel;html=1;align=center;verticalAlign=middle;resizable=0;points=[];" vertex="1" connectable="0" parent="ZrBkXSx4t8RdNaZ83y0n-54">
          <mxGeometry relative="1" as="geometry">
            <mxPoint as="offset" />
          </mxGeometry>
        </mxCell>
        <mxCell id="ZrBkXSx4t8RdNaZ83y0n-61" style="edgeStyle=orthogonalEdgeStyle;rounded=0;orthogonalLoop=1;jettySize=auto;html=1;exitX=0;exitY=1;exitDx=0;exitDy=0;entryX=1;entryY=1;entryDx=0;entryDy=0;curved=1;" edge="1" parent="1" source="ZrBkXSx4t8RdNaZ83y0n-42" target="ZrBkXSx4t8RdNaZ83y0n-39">
          <mxGeometry relative="1" as="geometry">
            <Array as="points">
              <mxPoint x="486" y="320" />
              <mxPoint x="154" y="320" />
            </Array>
          </mxGeometry>
        </mxCell>
        <mxCell id="ZrBkXSx4t8RdNaZ83y0n-62" value="Q_counter = 1" style="edgeLabel;html=1;align=center;verticalAlign=middle;resizable=0;points=[];" vertex="1" connectable="0" parent="ZrBkXSx4t8RdNaZ83y0n-61">
          <mxGeometry relative="1" as="geometry">
            <mxPoint as="offset" />
          </mxGeometry>
        </mxCell>
        <mxCell id="ZrBkXSx4t8RdNaZ83y0n-42" value="S&lt;sub&gt;3&lt;/sub&gt;" style="ellipse;whiteSpace=wrap;html=1;aspect=fixed;" vertex="1" parent="1">
          <mxGeometry x="480" y="240" width="40" height="40" as="geometry" />
        </mxCell>
        <mxCell id="ZrBkXSx4t8RdNaZ83y0n-48" value="&lt;div style=&quot;line-height: 60%;&quot;&gt;&lt;font style=&quot;font-size: 6px; line-height: 60%;&quot;&gt;enable_counter = 0&lt;br&gt;reset_counter = 1&lt;br&gt;&lt;/font&gt;&lt;div&gt;&lt;font style=&quot;font-size: 6px; line-height: 60%;&quot;&gt;read_rom = 0&lt;/font&gt;&lt;/div&gt;&lt;div&gt;&lt;font style=&quot;font-size: 6px; line-height: 60%;&quot;&gt;write_mem = 0&lt;/font&gt;&lt;/div&gt;&lt;/div&gt;" style="text;html=1;align=center;verticalAlign=middle;whiteSpace=wrap;rounded=0;spacing=2;" vertex="1" parent="1">
          <mxGeometry x="112.5" y="280" width="55" height="40" as="geometry" />
        </mxCell>
        <mxCell id="ZrBkXSx4t8RdNaZ83y0n-50" value="&lt;div style=&quot;line-height: 60%;&quot;&gt;&lt;font style=&quot;font-size: 6px; line-height: 60%;&quot;&gt;enable_counter = 1&lt;br&gt;reset_counter = 0&lt;/font&gt;&lt;div&gt;&lt;font style=&quot;font-size: 6px; line-height: 60%;&quot;&gt;read_rom = 1&lt;/font&gt;&lt;/div&gt;&lt;/div&gt;" style="text;html=1;align=center;verticalAlign=middle;whiteSpace=wrap;rounded=0;spacing=2;" vertex="1" parent="1">
          <mxGeometry x="232.5" y="280" width="55" height="30" as="geometry" />
        </mxCell>
        <mxCell id="ZrBkXSx4t8RdNaZ83y0n-51" style="edgeStyle=orthogonalEdgeStyle;rounded=0;orthogonalLoop=1;jettySize=auto;html=1;exitX=1;exitY=0;exitDx=0;exitDy=0;entryX=0;entryY=0;entryDx=0;entryDy=0;curved=1;" edge="1" parent="1" source="ZrBkXSx4t8RdNaZ83y0n-39" target="ZrBkXSx4t8RdNaZ83y0n-39">
          <mxGeometry relative="1" as="geometry">
            <Array as="points">
              <mxPoint x="154" y="220" />
              <mxPoint x="126" y="220" />
            </Array>
          </mxGeometry>
        </mxCell>
        <mxCell id="ZrBkXSx4t8RdNaZ83y0n-56" value="start = 0" style="edgeLabel;html=1;align=center;verticalAlign=middle;resizable=0;points=[];" vertex="1" connectable="0" parent="ZrBkXSx4t8RdNaZ83y0n-51">
          <mxGeometry relative="1" as="geometry">
            <mxPoint as="offset" />
          </mxGeometry>
        </mxCell>
        <mxCell id="ZrBkXSx4t8RdNaZ83y0n-57" value="&lt;div style=&quot;line-height: 60%;&quot;&gt;&lt;font style=&quot;font-size: 6px; line-height: 60%;&quot;&gt;enable_counter = 0&lt;/font&gt;&lt;div&gt;&lt;font style=&quot;font-size: 6px; line-height: 60%;&quot;&gt;read_rom = 0&lt;/font&gt;&lt;/div&gt;&lt;div&gt;&lt;font style=&quot;font-size: 6px; line-height: 60%;&quot;&gt;write_mem = 1&lt;/font&gt;&lt;/div&gt;&lt;/div&gt;" style="text;html=1;align=center;verticalAlign=middle;whiteSpace=wrap;rounded=0;spacing=2;" vertex="1" parent="1">
          <mxGeometry x="352.5" y="280" width="55" height="30" as="geometry" />
        </mxCell>
        <mxCell id="ZrBkXSx4t8RdNaZ83y0n-59" value="&lt;div style=&quot;line-height: 60%;&quot;&gt;&lt;div&gt;&lt;font style=&quot;font-size: 6px; line-height: 60%;&quot;&gt;write_mem = 0&lt;/font&gt;&lt;/div&gt;&lt;/div&gt;" style="text;html=1;align=center;verticalAlign=middle;whiteSpace=wrap;rounded=0;spacing=2;" vertex="1" parent="1">
          <mxGeometry x="472.5" y="280" width="55" height="20" as="geometry" />
        </mxCell>
      </root>
    </mxGraphModel>
  </diagram>
</mxfile>
